HIERARCHY
ROOT pelvis
{
	OFFSET 0 95.0 0
	CHANNELS 6 Xposition Yposition Zposition Xrotation Yrotation Zrotation
JOINT spine
{
	OFFSET 0 12.0 0
	CHANNELS 3 Xrotation Yrotation Zrotation
JOINT spine1
{
	OFFSET 0 12.0 0
	CHANNELS 3 Xrotation Yrotation Zrotation
JOINT chest
{
	OFFSET 0 12.0 0
	CHANNELS 3 Xrotation Yrotation Zrotation
JOINT neck
{
	OFFSET 0 14.000000000000002 0
	CHANNELS 3 Xrotation Yrotation Zrotation
JOINT head
{
	OFFSET 0 10.0 0
	CHANNELS 3 Xrotation Yrotation Zrotation
	End Site
{
		OFFSET 0 0 0
}
}
}
JOINT left_shoulder
{
	OFFSET 8.0 10.0 0
	CHANNELS 3 Xrotation Yrotation Zrotation
JOINT left_upper_arm
{
	OFFSET 12.0 0 0
	CHANNELS 3 Xrotation Yrotation Zrotation
JOINT left_lower_arm
{
	OFFSET 28.000000000000004 0 0
	CHANNELS 3 Xrotation Yrotation Zrotation
JOINT left_hand
{
	OFFSET 25.0 0 0
	CHANNELS 3 Xrotation Yrotation Zrotation
	End Site
{
		OFFSET 0 0 0
}
}
}
}
}
JOINT right_shoulder
{
	OFFSET -8.0 10.0 0
	CHANNELS 3 Xrotation Yrotation Zrotation
JOINT right_upper_arm
{
	OFFSET -12.0 0 0
	CHANNELS 3 Xrotation Yrotation Zrotation
JOINT right_lower_arm
{
	OFFSET -28.000000000000004 0 0
	CHANNELS 3 Xrotation Yrotation Zrotation
JOINT right_hand
{
	OFFSET -25.0 0 0
	CHANNELS 3 Xrotation Yrotation Zrotation
	End Site
{
		OFFSET 0 0 0
}
}
}
}
}
}
}
}
JOINT left_hip
{
	OFFSET 10.0 0 0
	CHANNELS 3 Xrotation Yrotation Zrotation
JOINT left_upper_leg
{
	OFFSET 0 -43.0 0
	CHANNELS 3 Xrotation Yrotation Zrotation
JOINT left_lower_leg
{
	OFFSET 0 -42.0 0
	CHANNELS 3 Xrotation Yrotation Zrotation
JOINT left_foot
{
	OFFSET 0 0 15.0
	CHANNELS 3 Xrotation Yrotation Zrotation
	End Site
{
		OFFSET 0 0 0
}
}
}
}
}
JOINT right_hip
{
	OFFSET -10.0 0 0
	CHANNELS 3 Xrotation Yrotation Zrotation
JOINT right_upper_leg
{
	OFFSET 0 -43.0 0
	CHANNELS 3 Xrotation Yrotation Zrotation
JOINT right_lower_leg
{
	OFFSET 0 -42.0 0
	CHANNELS 3 Xrotation Yrotation Zrotation
JOINT right_foot
{
	OFFSET 0 0 15.0
	CHANNELS 3 Xrotation Yrotation Zrotation
	End Site
{
		OFFSET 0 0 0
}
}
}
}
}
}
MOTION
Frames: 17
Frame Time: 0.033367
0.000000 0.000000 0.000000 -14.853717 67.549663 23.535472 0.000000 -19.181309 0.000000 -0.000000 0.000000 -0.000000 0.000000 0.000000 0.000000 37.058462 7.535788 22.233189 -17.693185 34.897351 -13.218577 -0.000000 0.000000 -11.372868 -3.137458 -23.053142 -15.296906 0.686975 -6.438815 12.167428 6.512375 -18.337451 38.833439 -0.000000 0.000000 -11.372868 -7.026623 10.332439 68.357869 -0.000000 0.000000 0.000000 -0.000000 0.000000 0.000000 5.059141 -0.129576 -2.932399 48.660577 0.876048 1.937352 63.524181 -9.017040 5.589659 -35.422923 -6.793055 -2.171723 -42.217355 -1.509439 3.908749 55.062259 5.115695 9.796724 -2.435586 -29.292456 -0.636611 -14.506090 9.618752 1.227016
0.000000 0.000000 0.000000 -14.701742 67.609014 23.095136 0.000000 -19.251779 0.000000 0.000000 0.000000 -0.000000 0.000000 0.000000 0.000000 37.493073 7.580542 22.090842 -18.075769 34.900268 -12.750021 -0.000000 0.000000 -11.542745 -3.631413 -25.045826 -16.245067 0.889698 -8.282239 12.241726 7.033626 -19.321273 39.702464 -0.000000 0.000000 -11.542745 -6.933543 10.193601 68.370254 -0.000000 0.000000 0.000000 -0.000000 0.000000 0.000000 5.037309 -0.116290 -2.643260 49.439483 0.896600 1.947433 64.180327 -9.119986 5.726109 -35.944234 -7.188579 -2.334585 -42.249998 -1.619152 4.189098 54.847434 4.916587 9.459727 -2.196759 -29.367645 -0.575712 -14.304926 9.516165 1.196860
0.000000 0.000000 0.000000 -13.884531 67.897122 21.382662 -0.000000 -19.030763 -0.000000 -0.000000 0.000000 -0.000000 -0.000000 0.000000 0.000000 38.346908 7.948808 22.599083 -19.087371 34.410961 -12.232731 0.000000 0.000000 -11.221354 -4.072492 -26.693135 -17.045904 1.194938 -11.578847 11.744717 6.101772 -16.628109 40.075933 0.000000 0.000000 -11.221354 -5.970343 8.672687 69.033779 -1.046000 3.831699 30.527779 49.830971 84.238136 -54.383031 4.798412 -0.076206 -1.818678 51.375617 1.119369 2.326897 65.614476 -6.604917 4.260517 -34.989624 -6.647145 -2.097294 -43.069910 -1.934048 4.898576 55.143998 4.725759 9.036669 -1.128007 -28.835355 -0.290003 -14.351324 9.632662 1.215550
0.000000 0.000000 0.000000 -12.718819 68.873838 19.129347 -0.000000 -18.736881 -0.000000 -0.000000 0.000000 0.000000 -0.000000 0.000000 0.000000 39.146097 8.413668 23.376396 -19.066048 33.558279 -12.605225 -0.000000 0.000000 -10.707121 -4.038190 -26.563948 -16.988305 1.148718 -11.124926 11.754093 5.332542 -14.932201 39.125328 -0.000000 0.000000 -10.707121 -4.525668 6.510665 69.577670 -1.785784 6.708734 29.781360 26.211751 84.289234 -28.854018 4.706377 -0.061356 -1.492974 52.618664 0.916620 1.853758 64.065782 -0.982909 0.614984 -36.544843 -4.833025 -1.596633 -44.659141 -2.458962 5.982245 56.409837 5.243875 9.760924 0.058610 -26.839279 0.013984 -14.625631 10.577843 1.361263
0.000000 0.000000 0.000000 -10.635162 70.439043 16.217696 -0.000000 -18.649072 0.000000 0.000000 0.000000 0.000000 0.000000 0.000000 0.000000 39.253246 8.662294 23.980875 -19.120354 33.219774 -12.610018 0.000000 0.000000 -10.216343 -4.268113 -27.392490 -17.386926 1.124413 -10.784277 11.870232 4.922701 -14.484692 37.376376 0.000000 0.000000 -10.216343 -3.326003 4.761746 69.851494 -2.724844 10.121349 30.066106 11.432605 83.207171 -12.863810 4.082771 -0.052134 -1.462565 52.618664 0.916620 1.853758 64.065782 -0.982909 0.614984 -38.111031 2.452943 0.847389 -46.415165 -2.927489 6.821266 57.342470 5.770562 10.531894 1.206281 -25.255870 0.270263 -14.819410 11.530053 1.504473
0.000000 0.000000 0.000000 -6.934862 72.241896 11.907092 -0.000000 -18.553505 0.000000 0.000000 0.000000 -0.000000 -0.000000 0.000000 0.000000 39.438841 8.728064 24.038782 -19.369237 32.905807 -12.179028 -0.000000 0.000000 -9.813858 -4.714120 -28.730518 -18.260843 1.110721 -10.103823 12.514877 4.407256 -13.242147 36.680822 -0.000000 0.000000 -9.813858 -2.291852 3.245722 70.445718 -3.645676 12.871885 31.510789 -0.030580 82.715731 0.034738 2.834798 -0.045957 -1.857176 52.618664 0.916620 1.853758 64.065782 -0.982909 0.614984 -39.059014 8.286179 2.943579 -48.433279 -3.323626 7.381509 57.947514 6.219150 11.206947 2.432911 -23.935727 0.515779 -14.979265 12.439070 1.641686
0.000000 0.000000 0.000000 -0.725608 73.973510 5.418111 0.000000 -18.453235 0.000000 -0.000000 0.000000 -0.000000 -0.000000 0.000000 0.000000 39.275098 8.776317 24.274224 -18.851417 32.317074 -12.182144 -0.000000 0.000000 -9.408764 -5.159247 -29.935774 -19.131131 1.054404 -9.395054 12.778869 3.764680 -11.427098 36.368363 -0.000000 0.000000 -9.408764 -1.560807 2.176848 71.278119 -4.848885 16.311748 32.917360 -5.412731 81.218894 6.311344 1.059577 -0.021050 -2.276161 52.618664 0.916620 1.853758 64.065782 -0.982909 0.614984 -39.877497 12.125607 4.412994 -50.777100 -3.769456 7.932722 58.496424 6.446755 11.485892 3.554571 -22.599355 0.710471 -15.110035 13.191121 1.757163
0.000000 0.000000 0.000000 8.585647 75.533048 -4.274153 -0.000000 -18.045277 -0.000000 0.000000 0.000000 -0.000000 -0.000000 0.000000 0.000000 37.984735 8.812720 25.239453 -17.934013 31.117997 -12.415218 -0.000000 0.000000 -9.052287 -5.345709 -30.875945 -19.189984 0.972016 -8.525865 12.984683 3.156380 -9.900501 35.291407 -0.000000 0.000000 -9.052287 -1.568597 2.110325 73.243814 -5.536088 18.427867 33.194124 -1.641440 80.386822 1.942782 -1.339339 0.026368 -2.255567 57.253053 0.432764 0.792863 60.182541 12.758378 -7.413517 -38.856600 0.719704 0.253850 -53.319368 -4.351967 8.655782 58.944807 6.386250 11.275537 4.496470 -21.544259 0.855904 -15.261279 13.927316 1.874956
0.000000 0.000000 0.000000 19.289096 76.369612 -15.137606 0.000000 -17.106057 0.000000 -0.000000 0.000000 -0.000000 -0.000000 0.000000 -0.000000 36.099569 8.707865 26.300808 -17.105266 29.557092 -12.191695 -0.000000 0.000000 -8.643483 -5.557643 -31.771425 -19.357802 0.860940 -7.863628 12.476915 2.491453 -8.570437 32.366162 -0.000000 0.000000 -8.643483 -1.709278 2.237928 74.740589 -6.583134 21.339319 33.950609 3.379548 77.965947 -4.175293 -4.841038 0.048194 -1.140069 57.253053 0.432764 0.792863 60.182541 12.758378 -7.413517 -32.228299 6.327375 1.829700 -55.625449 -5.038276 9.534893 59.709384 6.651613 11.562341 5.371957 -19.542456 0.925778 -15.484177 14.709790 2.010697
0.000000 0.000000 0.000000 31.088316 77.206688 -27.164318 0.000000 -15.872392 0.000000 -0.000000 0.000000 0.000000 -0.000000 0.000000 0.000000 33.844702 8.736027 28.186570 -16.283993 27.243374 -12.475767 -0.000000 -0.000000 -8.088348 -5.489018 -31.768219 -19.124849 0.734022 -6.968233 12.011972 1.613433 -6.019859 29.982921 -0.000000 -0.000000 -8.088348 -1.234183 1.587393 75.728051 -8.236161 25.096327 35.850228 4.767233 74.825524 -6.229857 -7.809934 0.066083 -0.968081 62.826130 -2.697347 -4.415329 60.125586 27.688901 -16.236516 -32.072438 -2.757858 -0.792831 -57.455253 -5.636208 10.263735 60.303102 6.807153 11.691705 6.472239 -17.617679 1.004020 -15.983581 15.572551 2.199593
0.000000 0.000000 0.000000 44.386161 77.370200 -40.582902 -0.000000 -14.588362 0.000000 -0.000000 -0.000000 -0.000000 -0.000000 0.000000 0.000000 31.568743 8.678977 30.053121 -15.685180 24.880490 -12.422045 -0.000000 0.000000 -7.420249 -5.561679 -31.759312 -19.379249 0.674419 -6.691221 11.498132 1.075044 -4.432059 27.256448 -0.000000 0.000000 -7.420249 -0.946598 1.206374 76.239240 -10.091570 29.618081 36.935109 7.613504 71.128187 -10.633591 -10.951224 0.095716 -0.998479 64.925736 -3.193118 -5.017457 61.103143 29.359657 -17.579972 -31.855320 -2.165368 -0.618019 -59.510645 -6.229269 10.874594 61.020762 6.787442 11.492816 7.336052 -15.616345 1.007331 -16.367018 16.176884 2.341624
0.000000 0.000000 0.000000 56.566106 77.160413 -52.711733 0.000000 -13.670798 0.000000 -0.000000 0.000000 0.000000 -0.000000 0.000000 -0.000000 29.592594 8.641966 31.926673 -15.236559 22.572853 -13.105918 -0.000000 0.000000 -6.930947 -5.611985 -31.490197 -19.723923 0.563518 -6.125964 10.501640 1.170015 -5.135242 25.654607 -0.000000 0.000000 -6.930947 -0.951142 1.204871 76.575332 -11.813475 33.898315 37.502193 10.010043 67.565060 -14.916048 -12.873707 0.146242 -1.296199 65.900390 -2.938511 -4.532162 61.711444 29.564704 -17.918250 -31.859240 -2.240251 -0.639479 -60.932403 -6.855889 11.628550 61.704114 6.462308 10.797675 7.297307 -13.587869 0.870528 -16.799656 16.541693 2.459345
0.000000 0.000000 0.000000 67.422568 76.655818 -63.391136 0.000000 -12.647809 -0.000000 -0.000000 0.000000 0.000000 0.000000 0.000000 -0.000000 27.515105 8.581068 34.072621 -14.352895 20.240842 -14.069816 -0.000000 0.000000 -6.555535 -5.846921 -31.054428 -20.830269 0.585029 -6.581521 10.148280 1.208943 -5.784317 23.591542 -0.000000 0.000000 -6.555535 -1.013880 1.280067 76.761252 -13.269996 38.009818 37.322995 12.053621 64.114940 -19.138192 -14.370541 0.157560 -1.249747 65.931188 -2.519927 -3.884591 61.821509 30.229180 -18.372315 -31.060603 -1.879066 -0.522225 -62.278231 -7.054331 11.650531 62.602286 6.524085 10.710066 7.236632 -12.980925 0.824372 -17.128972 16.705106 2.533381
0.000000 0.000000 0.000000 75.185754 75.796342 -70.946721 -0.000000 -11.639458 -0.000000 0.000000 -0.000000 0.000000 -0.000000 0.000000 0.000000 25.507548 8.382104 35.878187 -13.162190 18.177293 -14.789494 -0.000000 0.000000 -6.333196 -6.100847 -29.573558 -22.827406 0.764879 -8.328007 10.476900 1.247843 -6.871517 20.561736 -0.000000 0.000000 -6.333196 -1.558292 1.961564 76.926161 -14.225649 41.495571 36.463754 13.712946 60.747047 -23.188466 -16.108991 0.277616 -1.961615 66.095555 -3.062380 -4.705528 61.477630 29.949459 -18.075637 -30.288705 -2.212016 -0.598754 -62.810148 -6.998214 11.438758 62.634963 6.602463 10.831337 8.946204 -14.031159 1.103133 -17.368844 16.822909 2.587767
0.000000 0.000000 0.000000 80.658253 74.955037 -76.130181 0.000000 -10.526835 0.000000 0.000000 0.000000 -0.000000 -0.000000 0.000000 -0.000000 23.392151 8.006401 37.355800 -12.123754 16.369100 -15.250005 0.000000 0.000000 -6.227841 -6.337962 -27.106163 -25.870351 1.156030 -11.187669 11.762105 1.268038 -7.647225 18.803169 0.000000 0.000000 -6.227841 -2.269488 2.866012 76.744445 -15.252779 44.838237 35.961861 14.828224 57.431750 -26.723365 -18.575125 0.431625 -2.638917 67.436995 -3.478513 -5.210172 62.519770 29.433853 -18.118933 -29.175219 -2.284909 -0.594720 -63.393228 -6.308642 10.199228 63.131961 7.326216 11.897788 10.855205 -14.254300 1.361322 -17.325674 16.707651 2.563305
0.000000 0.000000 0.000000 84.809687 74.250695 -79.945525 0.000000 -9.475657 -0.000000 -0.000000 0.000000 0.000000 -0.000000 0.000000 0.000000 21.409139 7.534556 38.409475 -11.321338 14.489120 -15.590096 -0.000000 -0.000000 -6.423493 -6.702232 -24.502549 -30.182628 1.872985 -15.915975 13.338875 1.241110 -8.358795 16.862200 -0.000000 0.000000 -6.423493 -3.617210 4.555525 76.890177 -15.420976 47.507716 34.200490 16.151426 54.158827 -31.020854 -22.011314 0.442398 -2.274454 70.398908 -3.373996 -4.781647 63.306437 28.677722 -17.910677 -27.301368 -2.500478 -0.607362 -63.630377 -5.615199 9.039484 63.780804 7.954446 12.751800 11.329854 -15.106414 1.507136 -17.139102 16.366782 2.482867
0.000000 0.000000 0.000000 87.056759 73.814339 -81.963703 0.000000 -8.673192 -0.000000 -0.000000 0.000000 -0.000000 -0.000000 0.000000 -0.000000 20.380060 7.190791 38.535739 -11.377968 13.329245 -15.531375 -0.000000 0.000000 -6.537262 -7.016176 -20.145816 -38.079674 2.399767 -20.980390 12.907391 0.884004 -7.690562 13.095080 -0.000000 0.000000 -6.537262 -5.393664 6.787523 76.920306 -15.685390 50.095815 32.845277 16.802991 50.566365 -34.727488 -25.684531 0.313321 -1.374333 73.251861 -2.746557 -3.694175 62.445612 27.532145 -16.894290 -26.728842 -2.941145 -0.698895 -63.777107 -4.497678 7.223174 65.161063 8.857727 13.821076 10.332954 -17.609460 1.604746 -17.045420 16.131462 2.433131
